<?xml version="1.0" encoding="utf-8"?>
<!-- Generator: Adobe Illustrator 26.0.3, SVG Export Plug-In . SVG Version: 6.00 Build 0)  -->
<svg version="1.1" id="Camada_1" xmlns="http://www.w3.org/2000/svg" xmlns:xlink="http://www.w3.org/1999/xlink" x="0px" y="0px"
	 viewBox="0 0 370.55 526.14" style="enable-background:new 0 0 370.55 526.14;" xml:space="preserve">
<style type="text/css">
	.st0{fill:#141414;}
</style>
<g>
	<path class="st0" d="M80.22,0c40.7,171.62,42.76,353.71,5.08,526.14C100.96,350.24,99.62,175.55,80.22,0L80.22,0z"/>
	<path class="st0" d="M295.2,0c-35.46,150.57-39.77,307.85-10.73,459.81c3.8,21.79,8.71,43.37,13.63,65.02
		c-7.57-20.88-13.73-42.24-19.46-63.73C240.53,310.05,245.78,147.82,295.2,0L295.2,0z"/>
	<path class="st0" d="M0,95c124.1,4.03,246.39,5.83,370.55,4.13C248.3,119.72,121.73,118.76,0,95L0,95z"/>
	<path class="st0" d="M63.26,250.68c24.74,37.69,63.43,67.51,86.68,10.88c13.39-39.63,11-83.15,12.65-124.92
		c0.17-28.46-0.04-56.98-0.9-85.58c9.11,56.81,12.88,114.03,9.16,171.73C164.45,304.53,102.46,336.61,63.26,250.68L63.26,250.68z"/>
	<path class="st0" d="M0,442.57c119.84-33.56,249.64-37.4,370.55-7.01C246.69,428.28,123.43,429.21,0,442.57L0,442.57z"/>
	<path class="st0" d="M213.18,419.72c-6.36-68.08-3.87-136.21,2.97-204.19c6.84,67.98,9.34,136.11,2.98,204.19
		C218.84,423.18,213.45,423.2,213.18,419.72L213.18,419.72z"/>
	<path class="st0" d="M231.02,176.87c-0.02,23.91-36.23,25.96-37.17,0C194.79,150.91,231.01,152.97,231.02,176.87L231.02,176.87z
		 M231.02,176.87c-0.73-16.31-22.76-14.52-22.3,0C208.26,191.4,230.3,193.18,231.02,176.87L231.02,176.87z"/>
</g>
</svg>
