<svg width="403" height="40" viewBox="0 0 403 40" fill="none" xmlns="http://www.w3.org/2000/svg">
<path d="M36.84 4.5L58.44 17.86V22.38L42.86 32.06L40 27.76L53 20.12L34.04 9.04L36.84 4.5ZM15.68 8.18L18.44 12.54L5.46 20.12L23.56 30.76L20.72 35.26L0 22.38V17.9L15.68 8.18ZM22.12 39.62L17.18 37.36L35.18 0L40.08 2.26L22.12 39.62Z" fill="#121212"/>
<path d="M88.4195 33.16C78.6755 33.16 73.2035 29.32 73.2035 21.832V21.544H80.4035V22.408C80.4035 25.384 81.8915 26.584 88.4195 26.584C94.1795 26.584 95.5235 25.72 95.5235 23.56C95.5235 21.592 94.4195 20.872 91.1075 20.296L82.0835 19C76.3235 18.088 72.9155 15.208 72.9155 9.976C72.9155 5.128 76.8515 0.0400009 87.6515 0.0400009C97.5395 0.0400009 102.148 4.6 102.148 11.368V11.656H94.8995V10.984C94.8995 7.912 93.3155 6.616 86.9315 6.616C81.7475 6.616 80.1635 7.624 80.1635 9.688C80.1635 11.56 81.2195 12.232 83.9075 12.712L92.9315 14.152C100.132 15.304 102.724 18.808 102.724 23.224C102.724 28.456 98.6435 33.16 88.4195 33.16Z" fill="#121212"/>
<path d="M113.048 33.16C107.864 33.16 104.744 30.76 104.744 26.728C104.744 23.176 107.384 20.968 112.52 20.44L122.84 19.384V18.472C122.84 15.352 121.448 14.488 117.608 14.488C113.96 14.488 112.472 15.448 112.472 18.184V18.376H105.224V18.232C105.224 12.28 110.216 8.152 118.136 8.152C126.152 8.152 129.944 12.28 129.944 18.568V32.68H123.224V27.16H122.84C121.736 30.904 118.376 33.16 113.048 33.16ZM111.992 26.248C111.992 27.544 113 28.072 115.112 28.072C120.008 28.072 122.648 26.92 122.84 23.512L114.488 24.472C112.76 24.616 111.992 25.096 111.992 26.248Z" fill="#121212"/>
<path d="M140.793 32.68H133.593V8.632H140.265V15.928H140.649C141.225 11.896 143.625 8.152 149.673 8.152C155.241 8.152 158.073 11.56 158.601 16.024H159.033C159.609 11.944 162.057 8.152 168.249 8.152C174.441 8.152 177.465 12.232 177.465 17.704V32.68H170.265V20.104C170.265 16.12 168.873 14.632 164.745 14.632C160.377 14.632 159.129 16.36 159.129 20.536V32.68H151.929V20.104C151.929 16.12 150.537 14.632 146.409 14.632C142.041 14.632 140.793 16.36 140.793 20.536V32.68Z" fill="#121212"/>
<path d="M191.06 33.16C184.292 33.16 181.076 28.984 181.076 23.608V8.632H188.276V21.208C188.276 25.096 189.908 26.728 194.468 26.728C199.172 26.728 200.852 24.904 200.852 20.824V8.632H208.052V32.68H201.332V25.336H200.948C200.324 29.368 197.396 33.16 191.06 33.16Z" fill="#121212"/>
<path d="M224.502 33.16C216.486 33.16 211.014 29.224 211.014 20.68C211.014 13 216.438 8.152 224.358 8.152C232.23 8.152 237.462 12.28 237.462 19.816C237.462 20.68 237.366 21.304 237.27 22.12H217.686C217.878 25.816 219.606 27.4 224.262 27.4C228.534 27.4 230.022 26.296 230.022 24.232V23.752H237.222V24.28C237.222 29.512 232.134 33.16 224.502 33.16ZM224.214 13.768C219.942 13.768 218.118 15.208 217.782 18.328H230.55C230.358 15.16 228.438 13.768 224.214 13.768Z" fill="#121212"/>
<path d="M247.715 32.68H240.515V0.52H247.715V32.68Z" fill="#121212"/>
<path d="M273.482 33.16C263.738 33.16 258.266 29.32 258.266 21.832V21.544H265.466V22.408C265.466 25.384 266.954 26.584 273.482 26.584C279.242 26.584 280.586 25.72 280.586 23.56C280.586 21.592 279.482 20.872 276.17 20.296L267.146 19C261.386 18.088 257.978 15.208 257.978 9.976C257.978 5.128 261.914 0.0400009 272.714 0.0400009C282.602 0.0400009 287.21 4.6 287.21 11.368V11.656H279.962V10.984C279.962 7.912 278.378 6.616 271.994 6.616C266.81 6.616 265.226 7.624 265.226 9.688C265.226 11.56 266.282 12.232 268.97 12.712L277.994 14.152C285.194 15.304 287.786 18.808 287.786 23.224C287.786 28.456 283.706 33.16 273.482 33.16Z" fill="#121212"/>
<path d="M303.534 33.16C295.326 33.16 289.806 28.264 289.806 20.68C289.806 13 295.326 8.152 303.534 8.152C311.742 8.152 317.262 13 317.262 20.68C317.262 28.264 311.742 33.16 303.534 33.16ZM303.534 26.776C308.382 26.776 310.11 24.904 310.11 20.68C310.11 16.456 308.382 14.488 303.534 14.488C298.638 14.488 296.958 16.456 296.958 20.68C296.958 24.904 298.638 26.776 303.534 26.776Z" fill="#121212"/>
<path d="M330.138 33.16C323.37 33.16 320.155 28.984 320.155 23.608V8.632H327.354V21.208C327.354 25.096 328.987 26.728 333.547 26.728C338.251 26.728 339.931 24.904 339.931 20.824V8.632H347.13V32.68H340.41V25.336H340.026C339.402 29.368 336.474 33.16 330.138 33.16Z" fill="#121212"/>
<path d="M375.34 32.68H349.804V26.536L360.124 18.328L365.164 15.16V14.68L360.124 14.968H350.524V8.632H374.62V14.824L363.484 23.416L358.924 26.248V26.728L363.484 26.392H375.34V32.68Z" fill="#121212"/>
<path d="M385.579 33.16C380.395 33.16 377.275 30.76 377.275 26.728C377.275 23.176 379.915 20.968 385.051 20.44L395.371 19.384V18.472C395.371 15.352 393.979 14.488 390.139 14.488C386.491 14.488 385.003 15.448 385.003 18.184V18.376H377.755V18.232C377.755 12.28 382.747 8.152 390.667 8.152C398.683 8.152 402.475 12.28 402.475 18.568V32.68H395.755V27.16H395.371C394.267 30.904 390.907 33.16 385.579 33.16ZM384.523 26.248C384.523 27.544 385.531 28.072 387.643 28.072C392.539 28.072 395.179 26.92 395.371 23.512L387.019 24.472C385.291 24.616 384.523 25.096 384.523 26.248Z" fill="#121212"/>
</svg>
