<svg width="266" height="50" viewBox="0 0 266 50" fill="none" xmlns="http://www.w3.org/2000/svg">
<path d="M223.44 13.776V18.624L211.488 33.936H223.68L223.008 39.216H203.664V34.32L215.616 19.008H204.672V13.776H223.44Z" fill="#121212"/>
<path d="M194.944 13.008C198.528 13.008 201.6 14.032 204.16 16.08L201.568 19.968C199.424 18.624 197.312 17.952 195.232 17.952C194.112 17.952 193.248 18.16 192.64 18.576C192.032 18.992 191.728 19.552 191.728 20.256C191.728 20.768 191.856 21.2 192.112 21.552C192.4 21.904 192.912 22.24 193.648 22.56C194.416 22.88 195.552 23.264 197.056 23.712C199.744 24.448 201.744 25.44 203.056 26.688C204.368 27.904 205.024 29.584 205.024 31.728C205.024 33.424 204.528 34.896 203.536 36.144C202.576 37.392 201.264 38.352 199.6 39.024C197.936 39.664 196.08 39.984 194.032 39.984C191.888 39.984 189.936 39.664 188.176 39.024C186.416 38.352 184.912 37.44 183.664 36.288L187.024 32.544C189.168 34.208 191.44 35.04 193.84 35.04C195.12 35.04 196.128 34.8 196.864 34.32C197.632 33.808 198.016 33.12 198.016 32.256C198.016 31.584 197.872 31.056 197.584 30.672C197.296 30.288 196.768 29.936 196 29.616C195.232 29.264 194.032 28.864 192.4 28.416C189.84 27.712 187.936 26.72 186.688 25.44C185.472 24.128 184.864 22.512 184.864 20.592C184.864 19.152 185.28 17.856 186.112 16.704C186.944 15.552 188.112 14.656 189.616 14.016C191.152 13.344 192.928 13.008 194.944 13.008Z" fill="#121212"/>
<path d="M178.224 39.264C177.2 42.496 175.584 44.992 173.376 46.752C171.2 48.512 168.24 49.52 164.496 49.776L163.776 44.88C166.208 44.56 167.984 43.984 169.104 43.152C170.256 42.32 171.2 41.008 171.936 39.216H169.584L161.664 13.776H168.912L174 34.8L179.376 13.776H186.432L178.224 39.264Z" fill="#121212"/>
<path d="M240.015 5.4L265.935 21.432V26.856L247.239 38.472L243.807 33.312L259.407 24.144L236.655 10.848L240.015 5.4ZM223.767 44.592L217.839 41.88L238.023 0L243.903 2.712L223.767 44.592Z" fill="#EE6116"/>
<path d="M160.24 39.984C158.16 39.984 156.544 39.392 155.392 38.208C154.24 36.992 153.664 35.28 153.664 33.072V3.648L160.48 2.88V32.88C160.48 34 160.944 34.56 161.872 34.56C162.384 34.56 162.832 34.464 163.216 34.272L164.608 39.12C163.296 39.696 161.84 39.984 160.24 39.984Z" fill="#121212"/>
<path d="M151.704 25.92C151.704 26.24 151.656 27.12 151.56 28.56H135.672C135.896 30.864 136.52 32.496 137.544 33.456C138.568 34.416 139.96 34.896 141.72 34.896C142.808 34.896 143.832 34.72 144.792 34.368C145.752 34.016 146.792 33.456 147.912 32.688L150.744 36.528C147.896 38.832 144.68 39.984 141.096 39.984C137.096 39.984 134.024 38.784 131.88 36.384C129.736 33.984 128.664 30.736 128.664 26.64C128.664 24.048 129.112 21.728 130.008 19.68C130.936 17.6 132.264 15.968 133.992 14.784C135.752 13.6 137.832 13.008 140.232 13.008C143.848 13.008 146.664 14.144 148.68 16.416C150.696 18.688 151.704 21.856 151.704 25.92ZM144.936 24C144.936 19.776 143.416 17.664 140.376 17.664C138.968 17.664 137.864 18.192 137.064 19.248C136.296 20.272 135.832 21.952 135.672 24.288H144.936V24Z" fill="#121212"/>
<path d="M126.736 39.216H120.832L120.496 35.808C119.6 37.216 118.512 38.272 117.232 38.976C115.952 39.648 114.464 39.984 112.768 39.984C110.464 39.984 108.704 39.296 107.488 37.92C106.272 36.512 105.664 34.56 105.664 32.064V13.776H112.48V31.2C112.48 32.544 112.704 33.504 113.152 34.08C113.6 34.624 114.304 34.896 115.264 34.896C117.088 34.896 118.64 33.792 119.92 31.584V13.776H126.736V39.216Z" fill="#121212"/>
<path d="M96.168 13.008C98.184 13.008 99.8 13.696 101.016 15.072C102.264 16.448 102.888 18.32 102.888 20.688V39.216H96.072V21.84C96.072 19.344 95.24 18.096 93.576 18.096C92.68 18.096 91.896 18.384 91.224 18.96C90.552 19.536 89.864 20.432 89.16 21.648V39.216H82.344V21.84C82.344 19.344 81.512 18.096 79.848 18.096C78.952 18.096 78.168 18.4 77.496 19.008C76.824 19.584 76.152 20.464 75.48 21.648V39.216H68.664V13.776H74.568L75.096 16.944C76.056 15.664 77.128 14.688 78.312 14.016C79.528 13.344 80.92 13.008 82.488 13.008C83.928 13.008 85.176 13.376 86.232 14.112C87.288 14.816 88.056 15.824 88.536 17.136C89.592 15.76 90.728 14.736 91.944 14.064C93.192 13.36 94.6 13.008 96.168 13.008Z" fill="#121212"/>
<path d="M64.976 32.16C64.976 33.152 65.12 33.888 65.408 34.368C65.696 34.816 66.176 35.152 66.848 35.376L65.408 39.888C63.904 39.76 62.672 39.408 61.712 38.832C60.784 38.256 60.064 37.36 59.552 36.144C57.888 38.704 55.344 39.984 51.92 39.984C49.392 39.984 47.376 39.264 45.872 37.824C44.4 36.352 43.664 34.448 43.664 32.112C43.664 29.328 44.672 27.2 46.688 25.728C48.704 24.256 51.6 23.52 55.376 23.52H58.304V22.272C58.304 20.704 57.952 19.616 57.248 19.008C56.544 18.4 55.376 18.096 53.744 18.096C51.952 18.096 49.712 18.544 47.024 19.44L45.488 14.88C48.656 13.632 51.792 13.008 54.896 13.008C58.352 13.008 60.896 13.76 62.528 15.264C64.16 16.736 64.976 18.944 64.976 21.888V32.16ZM53.792 35.088C55.712 35.088 57.216 34.144 58.304 32.256V27.408H56.048C52.368 27.408 50.528 28.784 50.528 31.536C50.528 32.656 50.8 33.536 51.344 34.176C51.92 34.784 52.736 35.088 53.792 35.088Z" fill="#121212"/>
<path d="M34.3733 13.008C37.9573 13.008 41.0293 14.032 43.5893 16.08L40.9973 19.968C38.8533 18.624 36.7413 17.952 34.6613 17.952C33.5413 17.952 32.6773 18.16 32.0693 18.576C31.4613 18.992 31.1573 19.552 31.1573 20.256C31.1573 20.768 31.2853 21.2 31.5413 21.552C31.8293 21.904 32.3413 22.24 33.0773 22.56C33.8453 22.88 34.9813 23.264 36.4853 23.712C39.1733 24.448 41.1733 25.44 42.4853 26.688C43.7973 27.904 44.4533 29.584 44.4533 31.728C44.4533 33.424 43.9573 34.896 42.9653 36.144C42.0053 37.392 40.6933 38.352 39.0293 39.024C37.3653 39.664 35.5093 39.984 33.4613 39.984C31.3173 39.984 29.3653 39.664 27.6053 39.024C25.8453 38.352 24.3413 37.44 23.0933 36.288L26.4533 32.544C28.5973 34.208 30.8693 35.04 33.2693 35.04C34.5493 35.04 35.5573 34.8 36.2933 34.32C37.0613 33.808 37.4453 33.12 37.4453 32.256C37.4453 31.584 37.3013 31.056 37.0133 30.672C36.7253 30.288 36.1973 29.936 35.4293 29.616C34.6613 29.264 33.4613 28.864 31.8293 28.416C29.2693 27.712 27.3653 26.72 26.1173 25.44C24.9013 24.128 24.2933 22.512 24.2933 20.592C24.2933 19.152 24.7093 17.856 25.5413 16.704C26.3733 15.552 27.5413 14.656 29.0453 14.016C30.5813 13.344 32.3573 13.008 34.3733 13.008Z" fill="#121212"/>
<path d="M18.816 9.81601L22.128 15.048L6.552 24.144L22.128 33.072L18.696 38.472L0 26.856V21.48L18.816 9.81601Z" fill="#F5870A"/>
</svg>
