<svg width="291" height="50" viewBox="0 0 291 50" fill="none" xmlns="http://www.w3.org/2000/svg">
<path d="M247.437 13.776V18.624L235.485 33.936H247.677L247.005 39.216H227.661V34.32L239.613 19.008H228.669V13.776H247.437Z" fill="#121212"/>
<path d="M215.733 13.008C219.317 13.008 222.389 14.032 224.949 16.08L222.357 19.968C220.213 18.624 218.101 17.952 216.021 17.952C214.901 17.952 214.037 18.16 213.429 18.576C212.821 18.992 212.517 19.552 212.517 20.256C212.517 20.768 212.645 21.2 212.901 21.552C213.189 21.904 213.701 22.24 214.437 22.56C215.205 22.88 216.341 23.264 217.845 23.712C220.533 24.448 222.533 25.44 223.845 26.688C225.157 27.904 225.813 29.584 225.813 31.728C225.813 33.424 225.317 34.896 224.325 36.144C223.365 37.392 222.053 38.352 220.389 39.024C218.725 39.664 216.869 39.984 214.821 39.984C212.677 39.984 210.725 39.664 208.965 39.024C207.205 38.352 205.701 37.44 204.453 36.288L207.813 32.544C209.957 34.208 212.229 35.04 214.629 35.04C215.909 35.04 216.917 34.8 217.653 34.32C218.421 33.808 218.805 33.12 218.805 32.256C218.805 31.584 218.661 31.056 218.373 30.672C218.085 30.288 217.557 29.936 216.789 29.616C216.021 29.264 214.821 28.864 213.189 28.416C210.629 27.712 208.725 26.72 207.477 25.44C206.261 24.128 205.653 22.512 205.653 20.592C205.653 19.152 206.069 17.856 206.901 16.704C207.733 15.552 208.901 14.656 210.405 14.016C211.941 13.344 213.717 13.008 215.733 13.008Z" fill="#121212"/>
<path d="M196.201 39.264C195.177 42.496 193.561 44.992 191.353 46.752C189.177 48.512 186.217 49.52 182.473 49.776L181.753 44.88C184.185 44.56 185.961 43.984 187.081 43.152C188.233 42.32 189.177 41.008 189.913 39.216H187.561L179.641 13.776H186.889L191.977 34.8L197.353 13.776H204.409L196.201 39.264Z" fill="#121212"/>
<path d="M265.015 5.4L290.935 21.432V26.856L272.239 38.472L268.807 33.312L284.407 24.144L261.655 10.848L265.015 5.4ZM248.767 44.592L242.839 41.88L263.023 0L268.903 2.712L248.767 44.592Z" fill="#F5870A"/>
<path d="M175.699 39.984C173.619 39.984 172.003 39.392 170.851 38.208C169.699 36.992 169.123 35.28 169.123 33.072V3.648L175.939 2.88V32.88C175.939 34 176.403 34.56 177.331 34.56C177.843 34.56 178.291 34.464 178.675 34.272L180.067 39.12C178.755 39.696 177.299 39.984 175.699 39.984Z" fill="#121212"/>
<path d="M164.429 25.92C164.429 26.24 164.381 27.12 164.285 28.56H148.397C148.621 30.864 149.245 32.496 150.269 33.456C151.293 34.416 152.685 34.896 154.445 34.896C155.533 34.896 156.557 34.72 157.517 34.368C158.477 34.016 159.517 33.456 160.637 32.688L163.469 36.528C160.621 38.832 157.405 39.984 153.821 39.984C149.821 39.984 146.749 38.784 144.605 36.384C142.461 33.984 141.389 30.736 141.389 26.64C141.389 24.048 141.837 21.728 142.733 19.68C143.661 17.6 144.989 15.968 146.717 14.784C148.477 13.6 150.557 13.008 152.957 13.008C156.573 13.008 159.389 14.144 161.405 16.416C163.421 18.688 164.429 21.856 164.429 25.92ZM157.661 24C157.661 19.776 156.141 17.664 153.101 17.664C151.693 17.664 150.589 18.192 149.789 19.248C149.021 20.272 148.557 21.952 148.397 24.288H157.661V24Z" fill="#121212"/>
<path d="M136.195 39.216H130.291L129.955 35.808C129.059 37.216 127.971 38.272 126.691 38.976C125.411 39.648 123.923 39.984 122.227 39.984C119.923 39.984 118.163 39.296 116.947 37.92C115.731 36.512 115.123 34.56 115.123 32.064V13.776H121.939V31.2C121.939 32.544 122.163 33.504 122.611 34.08C123.059 34.624 123.763 34.896 124.723 34.896C126.547 34.896 128.099 33.792 129.379 31.584V13.776H136.195V39.216Z" fill="#121212"/>
<path d="M102.179 13.008C104.195 13.008 105.811 13.696 107.027 15.072C108.275 16.448 108.899 18.32 108.899 20.688V39.216H102.083V21.84C102.083 19.344 101.251 18.096 99.5872 18.096C98.6912 18.096 97.9072 18.384 97.2352 18.96C96.5632 19.536 95.8752 20.432 95.1712 21.648V39.216H88.3552V21.84C88.3552 19.344 87.5232 18.096 85.8592 18.096C84.9632 18.096 84.1792 18.4 83.5072 19.008C82.8352 19.584 82.1632 20.464 81.4912 21.648V39.216H74.6752V13.776H80.5792L81.1072 16.944C82.0672 15.664 83.1392 14.688 84.3232 14.016C85.5392 13.344 86.9312 13.008 88.4992 13.008C89.9392 13.008 91.1872 13.376 92.2432 14.112C93.2992 14.816 94.0672 15.824 94.5472 17.136C95.6032 15.76 96.7392 14.736 97.9552 14.064C99.2032 13.36 100.611 13.008 102.179 13.008Z" fill="#121212"/>
<path d="M67.8652 32.16C67.8652 33.152 68.0092 33.888 68.2972 34.368C68.5852 34.816 69.0652 35.152 69.7372 35.376L68.2972 39.888C66.7932 39.76 65.5612 39.408 64.6012 38.832C63.6732 38.256 62.9532 37.36 62.4412 36.144C60.7772 38.704 58.2332 39.984 54.8092 39.984C52.2812 39.984 50.2652 39.264 48.7612 37.824C47.2892 36.352 46.5532 34.448 46.5532 32.112C46.5532 29.328 47.5612 27.2 49.5772 25.728C51.5932 24.256 54.4892 23.52 58.2652 23.52H61.1932V22.272C61.1932 20.704 60.8412 19.616 60.1372 19.008C59.4332 18.4 58.2652 18.096 56.6332 18.096C54.8412 18.096 52.6012 18.544 49.9132 19.44L48.3772 14.88C51.5452 13.632 54.6812 13.008 57.7852 13.008C61.2412 13.008 63.7852 13.76 65.4172 15.264C67.0492 16.736 67.8652 18.944 67.8652 21.888V32.16ZM56.6812 35.088C58.6012 35.088 60.1052 34.144 61.1932 32.256V27.408H58.9372C55.2572 27.408 53.4172 28.784 53.4172 31.536C53.4172 32.656 53.6892 33.536 54.2332 34.176C54.8092 34.784 55.6252 35.088 56.6812 35.088Z" fill="#121212"/>
<path d="M34.3733 13.008C37.9573 13.008 41.0293 14.032 43.5893 16.08L40.9973 19.968C38.8533 18.624 36.7413 17.952 34.6613 17.952C33.5413 17.952 32.6773 18.16 32.0693 18.576C31.4613 18.992 31.1573 19.552 31.1573 20.256C31.1573 20.768 31.2853 21.2 31.5413 21.552C31.8293 21.904 32.3413 22.24 33.0773 22.56C33.8453 22.88 34.9813 23.264 36.4853 23.712C39.1733 24.448 41.1733 25.44 42.4853 26.688C43.7973 27.904 44.4533 29.584 44.4533 31.728C44.4533 33.424 43.9573 34.896 42.9653 36.144C42.0053 37.392 40.6933 38.352 39.0293 39.024C37.3653 39.664 35.5093 39.984 33.4613 39.984C31.3173 39.984 29.3653 39.664 27.6053 39.024C25.8453 38.352 24.3413 37.44 23.0933 36.288L26.4533 32.544C28.5973 34.208 30.8693 35.04 33.2693 35.04C34.5493 35.04 35.5573 34.8 36.2933 34.32C37.0613 33.808 37.4453 33.12 37.4453 32.256C37.4453 31.584 37.3013 31.056 37.0133 30.672C36.7253 30.288 36.1973 29.936 35.4293 29.616C34.6613 29.264 33.4613 28.864 31.8293 28.416C29.2693 27.712 27.3653 26.72 26.1173 25.44C24.9013 24.128 24.2933 22.512 24.2933 20.592C24.2933 19.152 24.7093 17.856 25.5413 16.704C26.3733 15.552 27.5413 14.656 29.0453 14.016C30.5813 13.344 32.3573 13.008 34.3733 13.008Z" fill="#121212"/>
<path d="M18.816 9.81601L22.128 15.048L6.552 24.144L22.128 33.072L18.696 38.472L0 26.856V21.48L18.816 9.81601Z" fill="#F5870A"/>
</svg>
