<?xml version="1.0" standalone="no"?>
<!DOCTYPE svg PUBLIC "-//W3C//DTD SVG 20010904//EN"
 "http://www.w3.org/TR/2001/REC-SVG-20010904/DTD/svg10.dtd">
<svg version="1.0" xmlns="http://www.w3.org/2000/svg"
 width="485.000000pt" height="148.000000pt" viewBox="0 0 485.000000 148.000000"
 preserveAspectRatio="xMidYMid meet">

<g transform="translate(0.000000,148.000000) scale(0.100000,-0.100000)"
fill="#141414" stroke="none">
<path d="M2382 992 l-43 -3 3 -213 c3 -229 5 -238 57 -258 14 -5 40 -7 58 -3
30 5 31 7 21 35 -5 17 -16 30 -24 30 -8 0 -15 1 -16 3 -1 1 -4 94 -7 207 l-6
205 -43 -3z"/>
<path d="M464 956 c-47 -21 -74 -61 -74 -113 0 -37 6 -51 33 -77 17 -18 59
-43 92 -55 75 -28 85 -37 85 -72 0 -56 -72 -76 -145 -39 l-39 20 -23 -22 c-22
-20 -22 -23 -6 -40 9 -10 41 -25 70 -34 99 -29 200 3 229 71 39 94 -6 162
-138 204 -34 11 -68 43 -68 63 0 3 7 14 16 22 20 20 80 20 119 0 28 -14 31
-14 47 6 26 32 23 39 -24 60 -50 23 -129 25 -174 6z"/>
<path d="M2744 956 c-47 -21 -74 -61 -74 -113 0 -37 6 -51 33 -77 17 -18 59
-43 92 -55 75 -28 85 -37 85 -72 0 -56 -72 -76 -145 -39 -39 20 -40 20 -59 1
-10 -11 -16 -26 -13 -34 18 -46 179 -69 245 -34 51 27 74 72 69 132 -4 42 -10
54 -40 80 -19 16 -59 38 -88 49 -30 10 -60 23 -66 28 -16 13 -17 50 -1 66 17
17 90 15 116 -4 21 -15 25 -15 43 2 29 26 23 43 -23 64 -50 23 -129 25 -174 6z"/>
<path d="M813 858 c-43 -9 -47 -15 -37 -54 5 -19 9 -20 54 -10 61 12 100 -2
100 -37 0 -22 -5 -25 -52 -30 -69 -7 -106 -24 -124 -58 -18 -36 -18 -73 1
-109 27 -53 122 -63 167 -18 20 20 20 20 42 -1 12 -12 30 -21 39 -21 22 0 42
49 27 64 -5 5 -10 53 -10 106 0 115 -17 153 -77 169 -44 13 -72 12 -130 -1z
m117 -215 c0 -33 -26 -63 -55 -63 -27 0 -45 18 -45 45 0 31 19 45 62 45 35 0
38 -2 38 -27z"/>
<path d="M1255 861 c-12 -5 -27 -16 -34 -25 -18 -22 -31 -20 -31 4 0 17 -7 20
-40 20 l-40 0 0 -170 0 -170 45 0 44 0 3 127 3 127 28 16 c47 25 57 0 57 -147
l0 -123 45 0 45 0 0 123 c0 110 2 126 19 141 11 10 28 16 38 14 16 -3 18 -17
21 -141 l3 -137 49 0 50 0 -1 128 c0 71 -5 142 -12 162 -21 61 -88 75 -150 29
l-28 -20 -17 20 c-19 24 -67 35 -97 22z"/>
<path d="M2086 860 c-70 -22 -113 -103 -103 -197 6 -60 25 -93 71 -127 37 -28
126 -28 179 0 l38 20 -19 24 c-17 21 -22 22 -52 12 -64 -23 -110 -6 -125 46
-6 22 -6 22 99 22 l106 0 0 40 c0 54 -27 116 -60 140 -33 23 -94 33 -134 20z
m94 -79 c5 -11 10 -29 10 -40 0 -19 -6 -21 -60 -21 l-60 0 6 28 c10 41 23 52
60 52 23 0 37 -6 44 -19z"/>
<path d="M3139 861 c-75 -24 -112 -80 -112 -172 0 -109 59 -173 160 -173 93 0
145 57 151 164 7 110 -39 172 -134 184 -22 3 -51 1 -65 -3z m86 -81 c12 -14
20 -40 22 -78 6 -84 -26 -132 -79 -119 -32 8 -48 45 -48 111 0 89 59 137 105
86z"/>
<path d="M4113 859 c-43 -10 -47 -17 -37 -55 5 -19 9 -20 54 -10 61 12 100 -2
100 -37 0 -22 -5 -25 -52 -30 -69 -7 -106 -24 -124 -58 -18 -36 -18 -73 1
-109 27 -53 122 -63 167 -18 20 20 20 20 42 -1 12 -12 30 -21 39 -21 22 0 42
49 27 64 -5 5 -10 50 -10 98 0 97 -15 150 -49 168 -31 16 -109 21 -158 9z
m117 -216 c0 -33 -26 -63 -55 -63 -27 0 -45 18 -45 45 0 31 19 45 62 45 35 0
38 -2 38 -27z"/>
<path d="M1640 716 c0 -79 3 -152 6 -161 18 -46 109 -55 152 -15 27 25 32 25
32 0 0 -17 7 -20 40 -20 l40 0 0 170 0 170 -45 0 -45 0 0 -125 c0 -121 -1
-125 -25 -141 -13 -8 -32 -14 -42 -12 -16 3 -18 18 -21 141 l-3 137 -44 0 -45
0 0 -144z"/>
<path d="M3410 716 c0 -138 1 -146 24 -173 31 -36 91 -38 136 -4 31 23 31 23
37 2 4 -17 13 -21 44 -21 l39 0 0 170 0 170 -50 0 -50 0 0 -123 c0 -107 -2
-126 -18 -140 -10 -10 -25 -17 -33 -17 -33 0 -39 23 -39 152 l0 128 -45 0 -45
0 0 -144z"/>
<path d="M3750 825 l0 -35 71 0 c39 0 69 -3 67 -8 -1 -4 -36 -50 -75 -103 -55
-72 -73 -104 -73 -127 l0 -32 124 0 c131 0 136 2 136 51 0 17 -8 19 -75 19
-41 0 -75 2 -75 5 0 3 34 48 75 102 59 76 75 103 75 130 l0 33 -125 0 -125 0
0 -35z"/>
</g>
</svg>
