<svg width="127" height="17" viewBox="0 0 127 17" fill="none" xmlns="http://www.w3.org/2000/svg">
<path d="M5.68 1.84C6.68 1.84 7.54667 1.98667 8.28 2.28C9.02667 2.56 9.71333 2.99333 10.34 3.58L8.94 5.2C8.44667 4.8 7.95333 4.50667 7.46 4.32C6.96667 4.13333 6.44 4.04 5.88 4.04C5.26667 4.04 4.77333 4.17333 4.4 4.44C4.04 4.69333 3.86 5.06 3.86 5.54C3.86 5.87333 3.93333 6.14667 4.08 6.36C4.24 6.57333 4.51333 6.77333 4.9 6.96C5.28667 7.14667 5.86667 7.36 6.64 7.6C8.01333 8.04 9.04 8.58667 9.72 9.24C10.4 9.88 10.74 10.8 10.74 12C10.74 12.8533 10.5267 13.6067 10.1 14.26C9.67333 14.9 9.05333 15.4067 8.24 15.78C7.42667 16.14 6.47333 16.32 5.38 16.32C4.28667 16.32 3.31333 16.1467 2.46 15.8C1.60667 15.4533 0.873333 14.98 0.26 14.38L1.76 12.72C2.29333 13.1733 2.84667 13.52 3.42 13.76C3.99333 13.9867 4.62 14.1 5.3 14.1C6.02 14.1 6.59333 13.9333 7.02 13.6C7.46 13.2667 7.68 12.8 7.68 12.2C7.68 11.8267 7.6 11.52 7.44 11.28C7.29333 11.0267 7.03333 10.8 6.66 10.6C6.28667 10.4 5.74667 10.1933 5.04 9.98C3.53333 9.51333 2.45333 8.95333 1.8 8.3C1.16 7.64667 0.84 6.79333 0.84 5.74C0.84 4.96667 1.04667 4.28667 1.46 3.7C1.87333 3.1 2.44667 2.64 3.18 2.32C3.91333 2 4.74667 1.84 5.68 1.84ZM20.8086 13.06C20.8086 13.4733 20.8686 13.78 20.9886 13.98C21.1086 14.1667 21.3086 14.3067 21.5886 14.4L20.9886 16.28C20.3619 16.2267 19.8486 16.08 19.4486 15.84C19.0619 15.6 18.7619 15.2267 18.5486 14.72C17.8553 15.7867 16.7953 16.32 15.3686 16.32C14.3153 16.32 13.4753 16.02 12.8486 15.42C12.2353 14.8067 11.9286 14.0133 11.9286 13.04C11.9286 11.88 12.3486 10.9933 13.1886 10.38C14.0286 9.76667 15.2353 9.46 16.8086 9.46H18.0286V8.94C18.0286 8.28667 17.8819 7.83333 17.5886 7.58C17.2953 7.32667 16.8086 7.2 16.1286 7.2C15.3819 7.2 14.4486 7.38667 13.3286 7.76L12.6886 5.86C14.0086 5.34 15.3153 5.08 16.6086 5.08C18.0486 5.08 19.1086 5.39333 19.7886 6.02C20.4686 6.63333 20.8086 7.55333 20.8086 8.78V13.06ZM16.1486 14.28C16.9486 14.28 17.5753 13.8867 18.0286 13.1V11.08H17.0886C15.5553 11.08 14.7886 11.6533 14.7886 12.8C14.7886 13.2667 14.9019 13.6333 15.1286 13.9C15.3686 14.1533 15.7086 14.28 16.1486 14.28ZM35.1061 5.08C35.9461 5.08 36.6194 5.36667 37.1261 5.94C37.6461 6.51333 37.9061 7.29333 37.9061 8.28V16H35.0661V8.76C35.0661 7.72 34.7194 7.2 34.0261 7.2C33.6528 7.2 33.3261 7.32 33.0461 7.56C32.7661 7.8 32.4794 8.17333 32.1861 8.68V16H29.3461V8.76C29.3461 7.72 28.9994 7.2 28.3061 7.2C27.9328 7.2 27.6061 7.32667 27.3261 7.58C27.0461 7.82 26.7661 8.18667 26.4861 8.68V16H23.6461V5.4H26.1061L26.3261 6.72C26.7261 6.18667 27.1728 5.78 27.6661 5.5C28.1728 5.22 28.7528 5.08 29.4061 5.08C30.0061 5.08 30.5261 5.23333 30.9661 5.54C31.4061 5.83333 31.7261 6.25333 31.9261 6.8C32.3661 6.22667 32.8394 5.8 33.3461 5.52C33.8661 5.22667 34.4528 5.08 35.1061 5.08ZM49.2792 16H46.8192L46.6792 14.58C46.3059 15.1667 45.8526 15.6067 45.3192 15.9C44.7859 16.18 44.1659 16.32 43.4592 16.32C42.4992 16.32 41.7659 16.0333 41.2592 15.46C40.7526 14.8733 40.4992 14.06 40.4992 13.02V5.4H43.3392V12.66C43.3392 13.22 43.4326 13.62 43.6192 13.86C43.8059 14.0867 44.0992 14.2 44.4992 14.2C45.2592 14.2 45.9059 13.74 46.4392 12.82V5.4H49.2792V16ZM61.0436 10.46C61.0436 10.5933 61.0236 10.96 60.9836 11.56H54.3636C54.4569 12.52 54.7169 13.2 55.1436 13.6C55.5703 14 56.1503 14.2 56.8836 14.2C57.3369 14.2 57.7636 14.1267 58.1636 13.98C58.5636 13.8333 58.9969 13.6 59.4636 13.28L60.6436 14.88C59.4569 15.84 58.1169 16.32 56.6236 16.32C54.9569 16.32 53.6769 15.82 52.7836 14.82C51.8903 13.82 51.4436 12.4667 51.4436 10.76C51.4436 9.68 51.6303 8.71333 52.0036 7.86C52.3903 6.99333 52.9436 6.31333 53.6636 5.82C54.3969 5.32667 55.2636 5.08 56.2636 5.08C57.7703 5.08 58.9436 5.55333 59.7836 6.5C60.6236 7.44667 61.0436 8.76667 61.0436 10.46ZM58.2236 9.66C58.2236 7.9 57.5903 7.02 56.3236 7.02C55.7369 7.02 55.2769 7.24 54.9436 7.68C54.6236 8.10667 54.4303 8.80667 54.3636 9.78H58.2236V9.66ZM65.7392 16.32C64.8726 16.32 64.1992 16.0733 63.7192 15.58C63.2392 15.0733 62.9992 14.36 62.9992 13.44V1.18L65.8392 0.859999V13.36C65.8392 13.8267 66.0326 14.06 66.4192 14.06C66.6326 14.06 66.8192 14.02 66.9792 13.94L67.5592 15.96C67.0126 16.2 66.4059 16.32 65.7392 16.32ZM78.18 1.84C79.18 1.84 80.0467 1.98667 80.78 2.28C81.5267 2.56 82.2133 2.99333 82.84 3.58L81.44 5.2C80.9467 4.8 80.4533 4.50667 79.96 4.32C79.4667 4.13333 78.94 4.04 78.38 4.04C77.7667 4.04 77.2733 4.17333 76.9 4.44C76.54 4.69333 76.36 5.06 76.36 5.54C76.36 5.87333 76.4333 6.14667 76.58 6.36C76.74 6.57333 77.0133 6.77333 77.4 6.96C77.7867 7.14667 78.3667 7.36 79.14 7.6C80.5133 8.04 81.54 8.58667 82.22 9.24C82.9 9.88 83.24 10.8 83.24 12C83.24 12.8533 83.0267 13.6067 82.6 14.26C82.1733 14.9 81.5533 15.4067 80.74 15.78C79.9267 16.14 78.9733 16.32 77.88 16.32C76.7867 16.32 75.8133 16.1467 74.96 15.8C74.1067 15.4533 73.3733 14.98 72.76 14.38L74.26 12.72C74.7933 13.1733 75.3467 13.52 75.92 13.76C76.4933 13.9867 77.12 14.1 77.8 14.1C78.52 14.1 79.0933 13.9333 79.52 13.6C79.96 13.2667 80.18 12.8 80.18 12.2C80.18 11.8267 80.1 11.52 79.94 11.28C79.7933 11.0267 79.5333 10.8 79.16 10.6C78.7867 10.4 78.2467 10.1933 77.54 9.98C76.0333 9.51333 74.9533 8.95333 74.3 8.3C73.66 7.64667 73.34 6.79333 73.34 5.74C73.34 4.96667 73.5467 4.28667 73.96 3.7C74.3733 3.1 74.9467 2.64 75.68 2.32C76.4133 2 77.2467 1.84 78.18 1.84ZM89.6686 5.08C91.2553 5.08 92.4953 5.58 93.3886 6.58C94.2819 7.56667 94.7286 8.94 94.7286 10.7C94.7286 11.82 94.5219 12.8067 94.1086 13.66C93.7086 14.5 93.1219 15.1533 92.3486 15.62C91.5886 16.0867 90.6886 16.32 89.6486 16.32C88.0619 16.32 86.8153 15.8267 85.9086 14.84C85.0153 13.84 84.5686 12.46 84.5686 10.7C84.5686 9.58 84.7686 8.6 85.1686 7.76C85.5819 6.90667 86.1686 6.24667 86.9286 5.78C87.7019 5.31333 88.6153 5.08 89.6686 5.08ZM89.6686 7.2C88.9486 7.2 88.4086 7.48667 88.0486 8.06C87.7019 8.62 87.5286 9.5 87.5286 10.7C87.5286 11.9 87.7019 12.7867 88.0486 13.36C88.4086 13.92 88.9419 14.2 89.6486 14.2C90.3553 14.2 90.8819 13.92 91.2286 13.36C91.5886 12.7867 91.7686 11.9 91.7686 10.7C91.7686 9.5 91.5953 8.62 91.2486 8.06C90.9019 7.48667 90.3753 7.2 89.6686 7.2ZM105.568 16H103.108L102.968 14.58C102.595 15.1667 102.142 15.6067 101.608 15.9C101.075 16.18 100.455 16.32 99.7483 16.32C98.7883 16.32 98.0549 16.0333 97.5483 15.46C97.0416 14.8733 96.7883 14.06 96.7883 13.02V5.4H99.6283V12.66C99.6283 13.22 99.7216 13.62 99.9083 13.86C100.095 14.0867 100.388 14.2 100.788 14.2C101.548 14.2 102.195 13.74 102.728 12.82V5.4H105.568V16ZM115.533 5.4V7.42L110.553 13.8H115.633L115.353 16H107.293V13.96L112.273 7.58H107.713V5.4H115.533ZM125.262 13.06C125.262 13.4733 125.322 13.78 125.442 13.98C125.562 14.1667 125.762 14.3067 126.042 14.4L125.442 16.28C124.815 16.2267 124.302 16.08 123.902 15.84C123.515 15.6 123.215 15.2267 123.002 14.72C122.308 15.7867 121.248 16.32 119.822 16.32C118.768 16.32 117.928 16.02 117.302 15.42C116.688 14.8067 116.382 14.0133 116.382 13.04C116.382 11.88 116.802 10.9933 117.642 10.38C118.482 9.76667 119.688 9.46 121.262 9.46H122.482V8.94C122.482 8.28667 122.335 7.83333 122.042 7.58C121.748 7.32667 121.262 7.2 120.582 7.2C119.835 7.2 118.902 7.38667 117.782 7.76L117.142 5.86C118.462 5.34 119.768 5.08 121.062 5.08C122.502 5.08 123.562 5.39333 124.242 6.02C124.922 6.63333 125.262 7.55333 125.262 8.78V13.06ZM120.602 14.28C121.402 14.28 122.028 13.8867 122.482 13.1V11.08H121.542C120.008 11.08 119.242 11.6533 119.242 12.8C119.242 13.2667 119.355 13.6333 119.582 13.9C119.822 14.1533 120.162 14.28 120.602 14.28Z" fill="#151515"/>
</svg>
